<?xml version="1.0" encoding="utf-8"?>
<svg version="1.1" id="Calque_1" xmlns="http://www.w3.org/2000/svg" xmlns:xlink="http://www.w3.org/1999/xlink" x="0px" y="0px"
	 viewBox="0 0 100 81.4" style="enable-background:new 0 0 100 81.4;" xml:space="preserve">
<style type="text/css">
	.st0{fill:#FBD253;}
</style>
<path class="st0" d="M99.9,48c-0.1-0.3-0.9-1.7-0.9-2l0.2-0.6l0,0c0.1-0.4,0.2-1.3,0.2-1.7l-0.1-0.1h-0.1c-0.1-0.1-0.2-0.3-0.3-0.4
	c-0.1-0.3-0.2-0.7-0.2-1l0,0l0.3-0.3c-0.5-0.1-1.5-0.2-2-0.5v-0.1c0,0-0.2,0-0.2,0l0,0l-0.1,0.1c-0.1,0-0.9,0.2-1,0.2
	c-0.1-0.1-0.3-0.4-0.4-0.5v-0.2c-0.1,0-0.2-0.1-0.3-0.1l0.2-0.4c-0.1,0-0.4,0-0.5-0.1v-0.2l0.2-0.3l-0.4-0.5c0.4-0.8,1.2-1.4,1.9-2
	v-0.2c0.2-0.2,0.6-0.5,0.5-0.9c-0.5,0-2-0.1-2.4-0.3l-0.2-0.7l0.3-0.2c-0.5-0.7-1.5-2.4-2.1-2.9c-0.5-0.1-1.3,0.4-1.8,0.3
	c-0.2-0.2-0.1-0.6,0-0.8c0-0.3-0.2-0.6-0.5-0.6c0-0.1,0-0.2,0-0.3c-0.3,0.2-2,0-2.4,0h-0.2l0.5,0.6L88,31.4l-0.5-0.6
	c-0.1-0.2-2.3,0-2.5,0c-0.2-0.1-0.7-0.6-0.9-0.8H84l-0.1-0.1l-0.3,0.2c0,0.1-0.1,0.2-0.1,0.3l0,0l-0.2,0.2c-0.1,0-0.2,0.1-0.3,0.1
	c-0.2,0-0.5-0.2-0.6-0.3c0,0-0.2,0-0.2,0c0.2-0.4,0.4-1,0.3-1.5c-0.1,0-0.3-0.1-0.4-0.1l-0.3-0.2c0,0-0.2,0-0.2,0l-0.1-0.1h0.1
	l-0.5-0.3c-0.1-0.1-0.3-0.7-0.4-0.7c0-0.2-0.1-0.7-0.1-0.9c0.3-0.2,1.6-1.8,1.9-2.1c0.2,0,0.6-0.2,0.8-0.3c0.4-0.4,0.5-1.4,1-1.8
	v-0.2c-0.3-0.2-0.7-0.1-1,0c0.4-0.6,1.2-1.9,1.4-2.6l-0.4-0.5c0.2-0.4,0-0.9,0.4-1.1l0.3,0.3l0.2-0.3l0,0c0.1-0.2,0.2-0.6,0.3-0.8
	l0,0c-0.1-0.1-0.1-0.3-0.1-0.5l-0.1-0.1c0.3,0,0.6,0,0.9-0.1l0.2-0.1l-0.6-0.7c0-0.3,0.2-0.6,0.4-0.8v-0.2l-0.3-0.5
	c-0.4,0-0.9,0-1.2,0.1l0,0c-0.5-0.2-0.8-1.1-1.3-1.3c-0.6,0-1.3,0.3-1.9,0.2c-0.2-0.1-0.4-0.3-0.5-0.5c-0.1,0-0.3-0.2-0.4-0.3
	L79.1,12l-0.5-0.5c0-0.5-0.2-1.4-0.3-1.8c-0.4-0.6-1-1-1.7-1c-0.1,0-0.4,0.2-0.5,0.2c-1.7,1.8-3.8,0.3-5.7,1.1l-0.5-0.1V8.4
	l-0.4-0.6c-0.3,0-1.2,0.1-1.5,0.1l-0.4-0.3h-0.1l0,0c-0.2-0.3-0.4-1.2-0.5-1.5c-0.2-0.2-1-1.1-1.1-1.4C66,4.5,66,4,66,3.8
	c0.2-0.3,0.4-1,0.4-1.4c-0.2-0.6-0.8-1.2-1.3-1.5l0,0V0.8l-0.4,0.1l-0.2,0.3c-0.2,0.8-0.8,1.6-1.3,2.3C63,3.9,62.5,4.3,62,4.4
	c-0.4-0.3-1-0.5-1.5-0.7c-0.5,0-2,0.1-2.4-0.3L58.3,3l0.3-0.1l1.1,0.5c0-0.3-0.1-0.7-0.2-0.9c0.1-0.5,0.2-1.2,0.2-1.7
	c-0.1-0.1-0.5-0.5-0.6-0.6c-0.2,0-0.4-0.1-0.6-0.2c-0.3-0.1-1,0.3-1.2,0.4c-0.4,0.4-2,2.9-2.7,2.8c-0.3,0.1-0.9-0.1-1.2-0.2
	c-0.3,0.1-0.8,0.1-1.1,0.1c-0.1-0.1-0.4-0.2-0.5-0.3c0.1-0.6,0.6-1.4,0.1-2c-0.3-0.2-0.8,0-1.1,0.1C50,1.2,48.7,1.7,48,2.2l0.4,0.3
	c0,0.2-0.2,0.5-0.3,0.6v0.5l0.2,0.2v0.1C48.5,4.1,49,4.8,49.1,5l0,0c0,0.1-0.1,0.7-0.1,0.8c-0.5,0.2-1.4,0.3-1.9,0.1
	c-0.6-0.2-1.3-0.7-2-0.7c1.6,1.6-0.5,2.3,1.8,3.1c-0.1,0.2-0.4,0.9-0.6,1h-0.1l-0.1,0.1l0.2-0.3c0-0.3,0-0.6-0.1-0.9
	C46,8,45.6,7.6,45.4,7.4c-0.6-0.6-0.5-1.6-1.3-2.1l0,0c-0.1,3.6-4.6,4.6-6.9,6.4c-0.4,0.5-3.2,0.3-3.8,0.4l0,0
	c-0.2-0.1-0.6-0.4-0.7-0.6c0-0.4,0-1.1-0.1-1.5c-0.7-0.5-3.5-1.3-4.3-1.4c-0.8,0-1.8,0.2-2.5,0.4l0,0c-0.2,0.2-0.4,0.4-0.4,0.7
	c0,0.3,0.2,0.8,0,1c-0.1,0-1.1,0.2-1.2,0.2c-0.2-0.1-0.7-0.1-0.9-0.1c-0.2-0.2-0.5-0.2-0.7-0.4c-0.5-0.4-0.9-1.1-1-1.7
	c0-1.1,0.1-2.5-0.2-3.6L15.6,7l-5.2,3.5c-2.3,1.2-7,4.1-8.9,5.8C1.1,16.4,0.3,16.7,0,17c0,0.1,0.3,0.9,0.4,0.9
	c0.1,0.7,0.2,2,0.5,2.6c0.8,0.9,2.4,2.5,0.6,3.3c-0.3,0.8,0.4,1.7,0.4,2.5c-0.1,0.2-0.2,0.5-0.2,0.7c0.1,0.1,0.3,0.2,0.4,0.2v0.1
	c0.2,0.2,0.2,0.6,0.4,0.8l0,0c0.2,0.1,0.6,0.2,0.8,0.2c0.3-0.1,0.8-0.1,1.1,0.1C4.5,29,5.2,29.6,5.6,30c0.3,0.3,0.7,1.1,0.8,1.5
	c0.4,0.5,2,1.1,2.6,1.3v0.1l0,0h0.1c0.1,0,0.3,0.1,0.4,0.1c0.5-0.3,0.8-1.1,1.1-1.6c0.6-0.8,1.6-1.1,2.5-1.3V30l0,0h0.1
	c0.5-0.1,1.6-0.5,2.1-0.6c0.6,0.2,1.3,0.8,1.4,1.4l-0.1,0.1c0.4,0.4,0.5,1.2,0.9,1.6c0.2,0,0.5,0.1,0.7,0.2c0.3,0.3,0.4,0.9,0.5,1.3
	c-0.1,0.2-0.3,0.5-0.4,0.7c0,0.8,0.6,2.7,0.9,3.4c0,0.4,0.1,1.5,0.2,1.8c0.5,0.7,1.5,1.4,2.4,1.5c0.6,0,1.5-0.4,2-0.7h0.1
	c0.1-0.1,0.2-0.2,0.3-0.3l0,0l0.2-0.2c0.3,0,0.6,0.1,0.8,0.1l0.2,0.3l-0.1,0.3l0,0l-0.2,0.4l0.3,0.3c4.9-0.6,3.7,3.7,4.2,6.9
	l0.9,0.8l0.1-0.3l0,0h0.1l0.1-0.1l0,0l0.1-0.1c0.1-0.5,0.7-1.2,1.1-1.5c1-0.2,2.4-0.1,3.2,0.7l0.4,0.1l0.1,0.1h0.6
	c0.7-0.4,1.9-1.1,2.6-0.6c0.5,0.7,1.4,1.3,2,1.8c0,0.3,0.5,1.2,0.6,1.5c0.1,0.1,0.4,0.2,0.5,0.2l0.2-0.1v-0.6l0.4-0.1
	c0.3,0.1,0.6,0.4,0.9,0.6c0.1,0.2,0.1,0.5,0.1,0.7l-0.2,0.2h-0.1c-0.3,0.2-0.8,0.6-0.8,1c-0.2,0.2-0.3,0.8-0.3,1
	c-0.2,0.7-0.5,1.7-0.6,2.4c0.4,0.3,1-0.4,1.4,0c0.1,0.3,0.5,1.9,0.6,2.1c0.1,0.1,0.3,0.5,0.2,0.6c-0.8,0.4-1.3,0.7-1.9,1.4l0,0
	c-0.1,0.2-0.2,0.5-0.2,0.7c0.3,0.3,0.3,0.9,0.3,1.3h-0.2c0.3,0.2,1.5,0.9,1.8,0.9c0.5-0.1,1.5-0.3,2-0.3c0.7,0.2,3.4,1,4.1,1.2
	c1.7-0.3,3.8-2.1,5.6-2.2l0.2-0.2l0.1-0.4l0,0c0.3-0.7,0.5-1.6,0.4-2.3l-0.1-0.1c0-0.2,0-0.5,0-0.7c0.5-0.6,2.9-3.3,3.7-3.4l0.1,0.6
	l0.3,0.1l0.8-0.2c0.5,0.8,0,1.8,0,2.6l-0.3-0.3c-0.6,0.6-0.7,1.3-0.6,2.1c-0.2,0.9-1.2,2.3-1.2,3.3l0.3,0.6c0.3,0.1,1,0.4,1.3,0.5
	c0.4,0.5,0.5,1,0.4,1.6c-0.2,0.2-0.3,0.5-0.3,0.8l-0.1,0.1v0.1L60.1,67c0,0.1,0,0.3,0,0.4l0.3,0.4c0,0.2,0,1.6,0,1.8l0.3,0.3
	c0.1,0,0.5,0.1,0.6,0.1c0.1-0.1,0.5-0.1,0.6-0.1c0.5-0.2,1.2-0.4,1.7-0.5l0.1,0.1l0,0l0.4,0.1c0.5,0.6,1.4,1.4,2.2,1.4
	c1.1,0.8,1.5,2.7,3.1,2.8c0.5-0.2,1.2-0.4,1.7-0.3c0.4,0.5,1.1,1.1,1.2,1.8l-0.1,0.1L72,75.5l0,0l-0.1,0.6c0.1,0.2,0.1,0.4,0.2,0.6
	c0.1,0,0.5,0,0.6,0c0.1-0.1,0.2-0.4,0.3-0.5c0.2,0,0.4,0.1,0.5,0.2c0.4,0.1,1,0.4,1.3,0.7c0.1,0.3,1.3,2.5,1.3,2.7
	c0,0.5-0.2,1,0,1.5l0.6,0.1c0.5-0.2,1-0.6,1.4-0.9c0.1,0,0.4-0.2,0.5-0.2c0.1,0.1,0.9,0.4,1,0.5c0.1-0.1,0.3-0.1,0.4-0.1v-0.1h0.1
	v-0.3c0.2-0.3,0.7-0.6,1-0.7c0.5,0,1.2,0.4,1.7,0.4c0.4,0,0.7-0.5,0.9-0.7H84l0.6,0.4c0.1,0,0.3,0.1,0.4,0.1c0.6-0.3,1.2-1,1.4-1.6
	c-0.1,0-0.3-0.2-0.4-0.2c0.5-0.4,0.6-1.1,0.8-1.6c0.2-0.3,0.5-0.6,0.6-0.9c-0.1-0.1-0.2-0.4-0.2-0.5c-0.1-0.1-0.5-0.2-0.7-0.2
	c-0.2-0.1-0.2-0.4-0.2-0.6l0.1-0.1c0-0.1,0-0.4,0-0.5c0,0,0.2-0.2,0.2-0.2c0-0.1,0-0.3,0-0.4l-0.2-0.2c-0.2,0-0.3,0-0.5,0l-0.2-0.3
	l-0.4-0.1l-0.1-0.1c0.1-0.6-0.4-1.5-0.7-2l0,0c-0.1-0.1-0.3-0.3-0.4-0.4c-0.1,0-0.3-0.1-0.4-0.1l-0.3-0.1c-0.2-0.6-0.6-1.2-0.3-1.8
	l0.3-0.2l-0.2-0.2v-0.2l0.1-0.1l0,0l0,0v-0.3L84,67c-0.2-0.4-0.7-0.7-1.1-1v-0.2c0.3-0.4,0.7-1.3,1-1.7v-0.2H84v-0.2l0,0
	c0-0.1,0.1-0.2,0.1-0.3h0.1c0-0.1,0.2-0.3,0.3-0.4l0.4-0.1c0.2-0.1,0.4-0.5,0.5-0.7c0-0.1-0.2-0.4-0.3-0.5c0-0.2,0.1-0.6,0.2-0.7
	c0.2-0.1,0.6-0.2,0.7-0.4l0,0c0-0.2,0.1-0.6,0.1-0.9c0-0.2,0.1-0.4,0.1-0.6c0.2-0.1,0.5-0.4,0.6-0.6c0-0.2,0-0.4,0.1-0.5
	c0-0.2,0-0.5,0.1-0.6c0.4-0.6,1.4-0.7,1.8-1.3c0.2-0.5,0.2-1.1,0.6-1.5c0.3,0.1,0.7-0.2,0.9-0.4l0,0l0.2,0.2v0.4
	c0.2,0.6,0.9,0.4,1.4,0.3c0.1,0,0.3-0.2,0.4-0.3h0.2l0.3,0.3h0.1c0,0.3,0,0.8,0.1,1.1l0.4,0.2c0.1-0.1,0.2-0.4,0.3-0.5l0,0l-0.1-0.3
	l-0.3-0.2c0.1-0.1,0.1-0.3,0.1-0.4c0-0.1,0.1-0.2,0.1-0.3l0,0c0.2-0.1,0.6-0.1,0.8-0.2l0.1-0.1h0.1c0.2-0.4,0.1-0.9,0-1.3l-0.3-0.4
	c0.1-0.1,0.2-0.4,0.3-0.5c0.3-0.1,0.7-0.4,0.7-0.7c0.2-0.1,0.7-0.4,1-0.3c0.3-0.1,0.9-0.4,1.1-0.6c-0.2-0.5,0.1-1.1,0.4-1.5
	c0.1,0,0.2-0.1,0.3-0.2c0.3-0.1,0.7,0.1,1,0.2c0.3-0.1,0.8-0.2,1-0.5L99.9,48z"/>
</svg>
